<svg width="67" height="66" viewBox="0 0 67 66" fill="none" xmlns="http://www.w3.org/2000/svg">
<path d="M22.7319 33.3745C27.4435 33.3745 30.6496 32.6537 32.3502 31.212C34.0509 29.7703 34.8992 27.4547 34.8951 24.2652C34.8951 21.3778 34.1797 19.3129 32.7488 18.0706C32.6004 17.9433 32.4448 17.8243 32.2828 17.7142C30.5392 16.5262 27.4261 15.9332 22.9435 15.9352H15.5451V33.3624L22.7319 33.3745Z" fill="#21B3F4"/>
<path d="M0 0V66H67V0H0ZM39.7793 8.49011C46.9029 8.49011 52.8235 10.5339 57.5411 14.6214L53.0831 20.8976C51.3847 19.4052 49.4054 18.2558 47.2575 17.5148C46.5776 17.2981 45.8842 17.1246 45.1818 16.9953C45.0019 16.4698 44.7975 15.9664 44.5685 15.4852C43.6194 13.3678 42.157 11.5124 40.3098 10.0818C39.5438 9.49701 38.7223 8.98623 37.8569 8.55656C38.4977 8.50823 39.1354 8.49011 39.7793 8.49011ZM59.8039 51.3545C55.1332 56.4226 48.4584 58.9556 39.7793 58.9536C32.4657 58.9536 26.3448 56.5837 21.4166 51.8438C20.2811 50.7607 19.2543 49.5722 18.3505 48.2949C17.1763 46.6417 16.2308 44.8419 15.5389 42.9429V57.2109H7.19609V8.49011H22.3732C26.2467 8.49011 29.555 8.82134 32.2981 9.4838C34.8981 10.108 36.9902 11.0312 38.5744 12.2534C40.0643 13.4075 41.2427 14.9054 42.0053 16.6148C42.9742 18.733 43.4586 21.2983 43.4586 24.3105C43.4818 26.2313 43.2362 28.1461 42.7289 30.0008C42.0636 32.3204 40.8218 34.6008 38.9576 36.1955C37.1483 37.6837 35.0317 38.7659 32.7549 39.3668H32.7396C29.85 40.1351 26.8817 40.5798 23.8909 40.6928C24.2445 41.6299 24.6913 42.5303 25.2246 43.3808C25.9137 44.4726 26.7376 45.476 27.6775 46.3679C30.9807 49.5071 34.9799 51.0766 39.6751 51.0766C44.3703 51.0766 48.2969 50.0779 51.455 48.0805V34.6974H59.8039V51.3545Z" fill="#21B3F4"/>
</svg>
